<svg width="69px" height="53px" viewBox="0 0 69 53" version="1.1" xmlns="http://www.w3.org/2000/svg" xmlns:xlink="http://www.w3.org/1999/xlink">
    <g id="Page-1" stroke="none" stroke-width="1" fill="none" fill-rule="evenodd">
        <g id="noun_190441_cc" fill="#000000">
            <g id="Group">
                <path d="M68.507,13.558 L62.414,11.593 L60.113,9.236 C60.027,9.148 59.921,9.084 59.802,9.05 L55.916,7.932 L51.738,1.206 C51.731,1.195 51.72,1.187 51.713,1.177 C51.698,1.155 51.68,1.136 51.662,1.116 C51.62,1.069 51.574,1.029 51.523,0.995 C51.509,0.986 51.502,0.972 51.487,0.964 C51.479,0.959 51.47,0.96 51.463,0.956 C51.388,0.917 51.309,0.889 51.225,0.879 C51.211,0.877 51.199,0.88 51.185,0.879 C51.133,0.875 51.081,0.872 51.029,0.88 C51.012,0.883 50.998,0.891 50.982,0.895 C50.956,0.901 50.931,0.91 50.906,0.918 C50.85,0.938 50.799,0.963 50.75,0.996 C50.729,1.01 50.709,1.02 50.689,1.037 C50.626,1.089 50.57,1.15 50.528,1.222 C50.526,1.225 50.523,1.227 50.521,1.23 C45.808,9.523 40.272,19.281 39.082,21.447 L23.891,22.136 L8.215,20.99 L8.214,20.99 L8.193,20.988 C8.17,20.987 8.149,20.997 8.127,20.998 C8.056,20.999 7.986,21.005 7.919,21.027 C7.918,21.027 7.917,21.028 7.915,21.029 C7.902,21.033 7.892,21.042 7.88,21.047 C7.724,20.983 7.547,20.966 7.377,21.026 L0.479,23.426 C0.181,23.529 -0.012,23.816 0.003,24.13 L0.151,27.134 C0.162,27.356 0.277,27.561 0.462,27.685 L3.342,29.639 L4.781,38.688 C4.788,38.736 4.801,38.783 4.817,38.83 C4.817,38.831 4.818,38.832 4.818,38.832 C4.817,38.833 4.819,38.834 4.819,38.834 L4.819,38.835 C4.82,38.836 4.82,38.836 4.82,38.837 C4.821,38.838 4.821,38.839 4.821,38.839 L4.821,38.84 L4.822,38.841 L4.822,38.842 C4.822,38.843 4.823,38.843 4.823,38.844 L4.823,38.845 L4.824,38.846 L4.824,38.847 C4.824,38.848 4.825,38.848 4.825,38.849 L10.261,52.353 C10.262,52.356 10.265,52.359 10.266,52.362 C10.268,52.365 10.268,52.369 10.269,52.372 C10.287,52.413 10.313,52.446 10.337,52.482 C10.351,52.502 10.359,52.525 10.375,52.543 C10.411,52.587 10.455,52.623 10.5,52.656 C10.51,52.663 10.518,52.673 10.527,52.679 C10.64,52.754 10.775,52.797 10.918,52.797 L18.243,52.797 C18.55,52.797 18.821,52.6 18.917,52.309 C19.012,52.017 18.909,51.698 18.662,51.517 L15.012,48.843 L22.328,42.386 L42.801,43.127 C43.081,44.429 44.221,48.572 44.361,49.083 C44.386,49.175 44.431,49.262 44.491,49.337 L47.039,52.53 C47.047,52.54 47.059,52.543 47.066,52.551 C47.094,52.583 47.127,52.609 47.161,52.635 C47.181,52.652 47.193,52.673 47.215,52.687 C47.232,52.698 47.25,52.702 47.268,52.71 C47.281,52.717 47.29,52.726 47.304,52.731 C47.319,52.737 47.334,52.741 47.349,52.747 C47.429,52.776 47.51,52.796 47.592,52.796 L47.592,52.796 L47.593,52.796 L53.334,52.796 C53.631,52.796 53.896,52.611 53.999,52.333 C54.102,52.055 54.02,51.742 53.796,51.549 L50.532,48.749 L52.126,46.219 C52.171,46.148 52.202,46.07 52.22,45.989 L53.06,42.038 L57.608,37.267 L57.608,37.267 L60.323,34.545 C60.441,34.427 60.514,34.269 60.527,34.102 L61.166,26.094 C61.177,25.958 61.149,25.823 61.085,25.704 L59.676,23.06 L63.478,22.843 C63.495,22.842 63.508,22.834 63.525,22.832 C63.58,22.825 63.632,22.814 63.683,22.796 C63.708,22.786 63.732,22.774 63.756,22.761 C63.801,22.739 63.841,22.712 63.88,22.681 C63.892,22.671 63.907,22.666 63.919,22.656 L68.773,18.154 C68.919,18.02 69.001,17.832 69.001,17.634 L69.001,14.232 C68.998,13.925 68.8,13.652 68.507,13.558 L68.507,13.558 Z M51.435,22.11 L49.003,16.866 L60.326,21.603 L51.435,22.11 L51.435,22.11 Z M54.542,8.403 L48.848,13.449 L51.414,3.368 L54.542,8.403 L54.542,8.403 Z M52.062,41.028 C51.956,41.091 51.872,41.182 51.81,41.293 L51.485,41.634 L40.474,26.84 C40.384,25.725 40.302,24.56 40.25,23.676 L56.057,36.837 L52.062,41.028 L52.062,41.028 Z M1.445,24.591 L6.756,22.742 L3.748,28.204 L1.55,26.712 L1.445,24.591 L1.445,24.591 Z M4.732,29.355 L8.543,22.435 L21.822,23.406 L5.981,37.209 L4.732,29.355 L4.732,29.355 Z M23.034,24.23 L21.392,41.321 L13.413,48.363 C13.404,48.371 13.401,48.381 13.393,48.388 C13.383,48.398 13.371,48.402 13.362,48.411 L11.157,50.786 L6.327,38.786 L23.034,24.23 L23.034,24.23 Z M12.543,51.379 L13.973,49.839 L16.077,51.379 L12.543,51.379 L12.543,51.379 Z M24.525,23.525 L38.796,22.879 C38.817,23.592 38.892,24.854 39.079,27.157 C39.09,27.29 39.138,27.416 39.217,27.522 L49.969,41.968 L22.849,40.987 L24.525,23.525 L24.525,23.525 Z M51.419,51.379 L48.876,51.379 L49.768,49.963 L51.419,51.379 L51.419,51.379 Z M47.523,50.866 L45.688,48.566 C45.204,46.808 44.536,44.321 44.263,43.18 L51.312,43.435 L50.858,45.571 L47.523,50.866 L47.523,50.866 Z M58.132,23.179 L59.736,26.188 L59.134,33.729 L57.05,35.819 L40.409,21.965 C41.515,19.973 45.878,12.279 49.15,6.515 L46.905,15.334 C46.883,15.423 46.882,15.515 46.894,15.605 C46.895,15.612 46.891,15.619 46.892,15.626 C46.895,15.642 46.908,15.653 46.911,15.669 C46.923,15.716 46.929,15.764 46.949,15.808 L50.351,23.146 C50.467,23.398 50.719,23.557 50.994,23.557 C51.008,23.557 51.02,23.556 51.034,23.555 L58.123,23.151 C58.128,23.158 58.127,23.169 58.132,23.179 L58.132,23.179 Z M67.58,17.325 L63.287,21.306 L48.906,15.289 L55.637,9.324 L59.23,10.358 L61.522,12.707 C61.602,12.789 61.702,12.851 61.811,12.887 L67.58,14.747 L67.58,17.325 L67.58,17.325 Z" id="Shape"></path>
            </g>
        </g>
    </g>
</svg>
